PathFileType	4	(X/Y/Z)	/Users/niels/Desktop/University/Third Semester/Perception and Action/Exam/Gymnastics Motion Tracking/Code for Gym Tracking/Analyzed Data/Webcam_Backflip/id1_1_trajectory_Sports2D/id1_1_trajectory_Sports2D_px_person00.trc
DataRate	CameraRate	NumFrames	NumMarkers	Units	OrigDataRate	OrigDataStartFrame	OrigNumFrames
29.874476987447697	29.874476987447697	11	22	m	29.874476987447697	89	239
Frame#	Time	Hip			RHip			RKnee			RAnkle			RBigToe			RSmallToe			RHeel			LHip			LKnee			LAnkle			LBigToe			LSmallToe			LHeel			Neck			Head			Nose			RShoulder			RElbow			RWrist			LShoulder			LElbow			LWrist		
		X1	Y1	Z1	X2	Y2	Z2	X3	Y3	Z3	X4	Y4	Z4	X5	Y5	Z5	X6	Y6	Z6	X7	Y7	Z7	X8	Y8	Z8	X9	Y9	Z9	X10	Y10	Z10	X11	Y11	Z11	X12	Y12	Z12	X13	Y13	Z13	X14	Y14	Z14	X15	Y15	Z15	X16	Y16	Z16	X17	Y17	Z17	X18	Y18	Z18	X19	Y19	Z19	X20	Y20	Z20	X21	Y21	Z21	X22	Y22	Z22
89	2.9791316526610645	0.8565419056790747	-0.6541344704412473	0.0	0.8507548671996981	-0.6567963247766361	0.0	0.9449772908351267	-0.7219605687931981	0.0	0.8727325515696229	-0.8135846368118853	0.0	0.9031623773544292	-0.8455161324959972	0.0	0.8927732428681789	-0.8449558660346138	0.0	0.8544583054773219	-0.8212622439954024	0.0	0.8700727493152036	-0.6526644121776246	0.0	0.9558685366317274	-0.7076454184416907	0.0	0.8967806464255873	-0.8018479281668413	0.0	0.9392838606325543	-0.8237795840859867	0.0	0.9307935425467969	-0.8152745727614894	0.0	0.8774049827230792	-0.816173716126044	0.0	0.9308812277376992	-0.5315385423851657	0.0	1.0004744507343653	-0.5065655864306917	0.0	0.9777127952352898	-0.5411961963313945	0.0	0.9070237974878773	-0.5314149424472109	0.0	0.8675083563903284	-0.5780604852582907	0.0	0.9388391241991341	-0.582108952527211	0.0	0.9262835241282279	-0.5421293516703156	0.0	0.9384127889417601	-0.5764781969474839	0.0	0.9914351255416332	-0.5644103872258762	0.0
90	3.0126050420168067	0.856313449882671	-0.6328194358003838	0.0	0.8499641049429177	-0.6359034814527009	0.0	0.9464829106371307	-0.7007202746083693	0.0	0.8740043136386249	-0.7929778753420453	0.0	0.902456848265222	-0.829603245554889	0.0	0.8911858782197128	-0.8287391142363909	0.0	0.8560394154167839	-0.8007302844129827	0.0	0.8713570503512714	-0.6306775061868147	0.0	0.962031966174606	-0.6814505206021441	0.0	0.906628828643203	-0.777454617671295	0.0	0.9472455392053459	-0.8069674425280654	0.0	0.9416090299433659	-0.7994586075385934	0.0	0.8892920484814871	-0.790574656455901	0.0	0.9284209897043438	-0.5100519156186705	0.0	0.9967888361516062	-0.4864485743768982	0.0	0.9739138789993577	-0.5218345432300844	0.0	0.9036676044624423	-0.510838490478849	0.0	0.8591592511159398	-0.5575742224496215	0.0	0.9309685799468738	-0.5703396726650353	0.0	0.9229977377030332	-0.5215516989387962	0.0	0.9293252125705764	-0.5554928869643658	0.0	0.9849210579175894	-0.5489909146654386	0.0
91	3.046078431372549	0.857770586566844	-0.6131734164446669	0.0	0.8505324924501323	-0.6165225331286533	0.0	0.9447318825300521	-0.6861520898105601	0.0	0.8752100397141527	-0.7806552780129516	0.0	0.9023086485318732	-0.8202887175828599	0.0	0.8906014907836278	-0.8192987302924614	0.0	0.8578112396509988	-0.7882155302683872	0.0	0.8740768194410626	-0.6103321637808762	0.0	0.9657951890943843	-0.6625489500476115	0.0	0.917144886331849	-0.7616167381116559	0.0	0.9561534204358803	-0.7962670938840628	0.0	0.9527271989755087	-0.7890431414942195	0.0	0.9016056867921669	-0.7736644399017032	0.0	0.9242551229933751	-0.48746924104488715	0.0	0.9915580336778996	-0.46339444734486007	0.0	0.9691957599493767	-0.5001499681304341	0.0	0.8987309320323696	-0.48896500880573235	0.0	0.8510408937680032	-0.5342006724728375	0.0	0.9224251768973254	-0.5491740810749179	0.0	0.9188415913688935	-0.49973034361756274	0.0	0.9201566808735262	-0.5302857492472336	0.0	0.9763255493171391	-0.5254692485396929	0.0
92	3.079551820728291	0.8605904803412426	-0.5964763733355143	0.0	0.8521329250248457	-0.5998331599510599	0.0	0.9399586136761048	-0.678079263707177	0.0	0.8757343608958454	-0.7759047140939517	0.0	0.902533369676931	-0.8167151512017412	0.0	0.8905585208808255	-0.8158555156917513	0.0	0.8590320748843479	-0.783440043032295	0.0	0.8777944306543704	-0.5929424596356406	0.0	0.9673186415309648	-0.651135699606406	0.0	0.9265550334883278	-0.7537963773544046	0.0	0.9644331137139294	-0.7911755411411749	0.0	0.9625049589039203	-0.7839088222483147	0.0	0.9122833934007542	-0.7652463186646982	0.0	0.918481761101461	-0.46603448841577305	0.0	0.9851789583220237	-0.4399491797590794	0.0	0.9635990696368336	-0.4784461243717968	0.0	0.8922724273312456	-0.4679896057021228	0.0	0.8427903170706524	-0.5102625190373118	0.0	0.9127844332076833	-0.5209076630327202	0.0	0.9137413411598485	-0.4786482841582652	0.0	0.9111160076391785	-0.5033210562886427	0.0	0.9650448977179943	-0.49623678341662186	0.0
93	3.1130252100840337	0.8643368227577526	-0.5832212780541263	0.0	0.85443452779293	-0.5862546254779342	0.0	0.9327275849307715	-0.6748562092952671	0.0	0.8752738546495693	-0.7765202190954774	0.0	0.9029006056292012	-0.8168128073648729	0.0	0.890753394218049	-0.8163484644917346	0.0	0.8592847230132239	-0.784480168269599	0.0	0.8820312692361865	-0.5790076692673612	0.0	0.9671428142670957	-0.6457186449794169	0.0	0.9332352661363763	-0.7515471430682801	0.0	0.9704596717355627	-0.7898447323004795	0.0	0.9693988969841022	-0.7824629449863549	0.0	0.9196845832168642	-0.7629800732094884	0.0	0.911540989833668	-0.44737849227355614	0.0	0.9781484358606324	-0.41816011107118617	0.0	0.9573761291272959	-0.45854939685734053	0.0	0.8847439052171168	-0.4495163017267484	0.0	0.8341333697366886	-0.48771126093177164	0.0	0.90103347935984	-0.4889120731353369	0.0	0.9078327882573397	-0.4598041362923751	0.0	0.9025932971810003	-0.47742457312010084	0.0	0.9510970328723443	-0.4650495802726495	0.0
94	3.146498599439776	0.8685646532296635	-0.57351681695462	0.0	0.8571660639250095	-0.5758817633524356	0.0	0.923735756627145	-0.6745236188739252	0.0	0.8737484378806646	-0.7801561166568673	0.0	0.9031272885304825	-0.8185007997470869	0.0	0.8909311005122733	-0.8186706086325376	0.0	0.8584259268661956	-0.7890830833589754	0.0	0.886361117978656	-0.568613439704071	0.0	0.9658206794422074	-0.6443284697568012	0.0	0.9359517666191912	-0.7519810231586416	0.0	0.9728391117351822	-0.790221857806702	0.0	0.972128111187014	-0.7827527460828102	0.0	0.9227538206125412	-0.7639228128311799	0.0	0.9040766411119541	-0.4323958077310582	0.0	0.9709020463245985	-0.3992410670158986	0.0	0.9509756908158195	-0.4415154105719245	0.0	0.8767703922083772	-0.4344716048387958	0.0	0.8249726393707011	-0.467989012016823	0.0	0.8857822196468024	-0.4571662564111209	0.0	0.9015250408396295	-0.44428159368070325	0.0	0.8954249107804522	-0.45504806496215866	0.0	0.9356060018674627	-0.43600868487911143	0.0
95	3.179971988795518	0.8728670171848215	-0.5672514798654044	0.0	0.8600847219982379	-0.5686793667239377	0.0	0.9136522694700757	-0.67562186692076	0.0	0.8711928425092896	-0.7850685836052156	0.0	0.902925088880791	-0.8203489993581592	0.0	0.8907929564563382	-0.8213597409064104	0.0	0.856497653121171	-0.7954442267804256	0.0	0.8904933690728825	-0.5616504018399232	0.0	0.9637028825157972	-0.645307680737779	0.0	0.9339979696332077	-0.7527261031657494	0.0	0.9706111512162653	-0.7907661930106601	0.0	0.9698196690102625	-0.783241642454073	0.0	0.9210046099302641	-0.7655225267366577	0.0	0.896774980931609	-0.42135475397468625	0.0	0.9638424767551168	-0.383610808798507	0.0	0.9449306175555385	-0.42762755038032757	0.0	0.8689281133705878	-0.4232186007975063	0.0	0.8154308033573895	-0.45207628935206745	0.0	0.8658394845613018	-0.4297995382877175	0.0	0.8954206085162256	-0.43275330202868	0.0	0.8897552943806395	-0.4378733920183327	0.0	0.9198372277951221	-0.41281384487353645	0.0
96	3.2134453781512606	0.8768295650927442	-0.5641246881657406	0.0	0.8629017755708654	-0.5644969215058068	0.0	0.9031765658111676	-0.677396528785487	0.0	0.867821422957014	-0.790244431842195	0.0	0.9021966140919203	-0.8217702626616719	0.0	0.8901556307177027	-0.8237634531545417	0.0	0.8537510765023215	-0.8023491676849734	0.0	0.894188088609409	-0.5578845233931703	0.0	0.9608489337523047	-0.6476172108344203	0.0	0.9272849285795166	-0.7524168373395317	0.0	0.9634886840788044	-0.7907570214835715	0.0	0.9622262349703443	-0.7831843340668061	0.0	0.9144914522626247	-0.7661316944691066	0.0	0.8902510882369776	-0.41412321655285245	0.0	0.9573465440050158	-0.37127212019786465	0.0	0.9396998207246673	-0.4167828818283425	0.0	0.8617107247606198	-0.4157642944225044	0.0	0.8058748406788918	-0.4406191153138534	0.0	0.8409231440104875	-0.4105159889673641	0.0	0.8901267983132245	-0.42539448298128246	0.0	0.8843740410067469	-0.4268676996974438	0.0	0.9042508508336478	-0.3983235641279149	0.0
97	3.246918767507003	0.8800100662494467	-0.5637185745838211	0.0	0.8652667421661461	-0.5630726512691574	0.0	0.8931728354276478	-0.6796140224384863	0.0	0.8640802068977038	-0.7952396763103321	0.0	0.9011376198960698	-0.8228337312738065	0.0	0.8891156156378813	-0.8258328372684988	0.0	0.8506202691370485	-0.8090575058089566	0.0	0.8970963754284195	-0.5569642690442216	0.0	0.9570742834553805	-0.650818497877629	0.0	0.9164486190120498	-0.7508897730188637	0.0	0.9520999880996228	-0.7902737178432804	0.0	0.9499652808451986	-0.7826817836766894	0.0	0.903862685630263	-0.7653012334619894	0.0	0.8849666455783318	-0.41038220095393646	0.0	0.95168162429421	-0.36218605439469875	0.0	0.9355389144949408	-0.40892189359217274	0.0	0.855602454849465	-0.41193274067148583	0.0	0.7968951276808058	-0.4339839519954416	0.0	0.8121969971895011	-0.401881822462743	0.0	0.8861102694838996	-0.4219807825583014	0.0	0.8779976605560575	-0.42229555601877206	0.0	0.8890947648572467	-0.39406407199445886	0.0
98	3.280392156862745	0.8820017149191302	-0.5656043009047219	0.0	0.8668382304551998	-0.5640755707767474	0.0	0.8845890622511193	-0.682352538006722	0.0	0.8605257933300561	-0.7999914903577714	0.0	0.9001317230496126	-0.8239083917386596	0.0	0.888042721269057	-0.8278076224686951	0.0	0.8476022545999967	-0.8152442322578527	0.0	0.8987754404624442	-0.558454280866551	0.0	0.9520904483265104	-0.6549124568600905	0.0	0.902788269191938	-0.7490768041165671	0.0	0.9380513593048142	-0.7899223843683891	0.0	0.9345767061910514	-0.7824681672679336	0.0	0.8903385237170754	-0.7638104345342633	0.0	0.8811317115718107	-0.4097515329998926	0.0	0.9470083343963972	-0.35637697518100026	0.0	0.9324591994647657	-0.40410487643685905	0.0	0.8509375295350772	-0.41142037788464375	0.0	0.7891720484315414	-0.4322807670046513	0.0	0.7823004175754612	-0.40481756234036026	0.0	0.8835939242713776	-0.4220927713762797	0.0	0.8709631077032376	-0.42357049130143043	0.0	0.8760778412009235	-0.39958326470531064	0.0
99	3.313865546218487	0.8825466011071109	-0.5694026077603069	0.0	0.8673959366378551	-0.5671700474506509	0.0	0.8780981237505546	-0.6858604384728877	0.0	0.8576244426814317	-0.8046880353154877	0.0	0.8995000052346612	-0.8253697890972164	0.0	0.8873846783199159	-0.8299849203726162	0.0	0.8451134681138514	-0.8209687952486409	0.0	0.8989094396214469	-0.5619402125687676	0.0	0.9456491624828085	-0.6601102771711882	0.0	0.8879387754057507	-0.7485949436133533	0.0	0.9235695798722031	-0.7904945874497054	0.0	0.9181976095574449	-0.7835364315746629	0.0	0.8754532888329467	-0.7632731175663433	0.0	0.8786504017251442	-0.4117900041544537	0.0	0.9433358131251037	-0.3538572028306192	0.0	0.9302657279305833	-0.4023517214304336	0.0	0.8476491813716251	-0.41379341624329263	0.0	0.7832223935354021	-0.4354039890940791	0.0	0.7546893607796377	-0.4185768769127071	0.0	0.882462236002897	-0.42516389173575164	0.0	0.8654369671788051	-0.4292675627859014	0.0	0.8690372893956411	-0.4120890508835058	0.0
